<svg width="160" height="160" viewBox="0 0 160 160" fill="none" xmlns="http://www.w3.org/2000/svg">
<g clip-path="url(#clip0_1_671)">
<path d="M107.512 70.0843C117.218 70.0843 125.114 62.1884 125.114 52.4831C124.436 30.2233 92.8294 28.7665 89.9988 50.723H47.3162C46.3441 50.723 45.5561 51.511 45.5561 52.4831V102.958C43.5719 104.738 41.8361 107.003 40.3261 109.77L35.6368 118.052C34.7881 119.579 34.7877 121.423 35.6359 122.865C36.4223 124.202 37.8121 125 39.3534 125H55.797C58.5834 125 59.6609 124.435 61.0331 122.254L62.3435 120.172L71.6235 120.615C78.5931 120.947 80.8168 120.593 87.4896 118.092C94.5309 115.495 106.009 110.584 112.292 108.187C112.298 108.185 112.304 108.183 112.309 108.181C115.47 107.039 116.435 104.073 115.755 101.734C115.097 99.4687 112.702 97.4058 108.999 98.2292C108.989 98.2315 108.978 98.2339 108.968 98.2364L105.4 99.098V69.9581C106.093 70.0413 106.798 70.0843 107.512 70.0843ZM107.512 38.4022C115.277 38.4022 121.593 44.7189 121.593 52.4831C120.885 71.1377 94.1366 71.1326 93.4315 52.4829C93.4315 44.7189 99.7482 38.4022 107.512 38.4022ZM68.4376 54.2432H82.5185V70.4145L76.4165 66.5684C75.8431 66.2069 75.113 66.2069 74.5395 66.5684L68.4376 70.4145V54.2432ZM109.778 101.662C111.126 101.367 112.096 101.76 112.374 102.716C112.596 103.48 112.294 104.44 111.12 104.868C104.876 107.239 93.2772 112.207 86.2534 114.795C80.0323 117.128 78.2748 117.408 71.7911 117.098L61.4846 116.607C60.8508 116.576 60.2492 116.89 59.911 117.428L58.0534 120.38C57.8075 120.771 57.5015 121.232 57.3161 121.33C57.0338 121.48 56.1025 121.476 55.797 121.48H39.3533C39.056 121.48 38.8261 121.345 38.6702 121.08C38.4484 120.703 38.4646 120.211 38.7068 119.775L43.3964 111.493C43.4012 111.484 43.4058 111.476 43.4103 111.468C49.7559 100.044 58.3614 100.797 68.0401 102.28C70.7829 102.693 73.3735 103.082 75.5233 102.883C77.1728 102.732 87.5255 101.554 89.2407 101.395C89.6089 101.361 89.9756 101.479 90.2725 101.727C90.6018 102.002 90.8042 102.395 90.8421 102.834C90.8662 103.112 90.9301 103.85 88.9577 104.704C84.6208 106.581 80.0151 108.156 76.3216 109.023C75.3752 109.245 74.7882 110.193 75.0104 111.139C75.2327 112.085 76.1803 112.672 77.1262 112.45C81.0139 111.537 85.8361 109.891 90.3563 107.934C91.9314 107.252 92.9222 106.431 93.5248 105.587L109.778 101.662ZM101.88 99.9479L94.2329 101.794C93.9819 100.711 93.3925 99.7466 92.53 99.0258C91.5084 98.1722 90.225 97.7682 88.917 97.8893C87.2729 98.0398 76.9203 99.2184 75.1992 99.3782C73.4747 99.5375 71.0892 99.1788 68.5634 98.7989C62.6727 97.7913 54.8641 97.0786 49.0763 100.45V54.2432H64.9173V73.6045C64.9173 74.2455 65.2658 74.8359 65.8271 75.1456C66.3883 75.4552 67.0737 75.4352 67.6159 75.0935L75.478 70.1381L83.3401 75.0935C83.8829 75.4355 84.5683 75.4551 85.1289 75.1456C85.6902 74.8359 86.0387 74.2455 86.0387 73.6045V54.2432H89.9986C90.693 61.2059 95.462 66.9866 101.88 69.16L101.88 99.9479Z" fill="white"/>
<path d="M54.3564 87.4803H60.5168C62.8497 87.3937 62.8479 84.0448 60.5168 83.9591H54.3564C52.0235 84.0457 52.0253 87.3945 54.3564 87.4803Z" fill="white"/>
<path d="M66.6772 90.9993H54.3564C52.0235 91.0859 52.0253 94.4347 54.3564 94.5204H66.6772C69.01 94.4338 69.0083 91.085 66.6772 90.9993Z" fill="white"/>
<path d="M104.287 57.6839C104.974 58.3712 106.089 58.3712 106.776 57.6839L114.697 49.7634C116.288 48.0582 113.911 45.684 112.208 47.2741L105.532 53.95L102.816 51.2343C101.111 49.6435 98.7366 52.0202 100.327 53.7236L104.287 57.6839Z" fill="white"/>
<circle cx="80" cy="80" r="78" stroke="white" stroke-width="4"/>
</g>
<defs>
<clipPath id="clip0_1_671">
<rect width="160" height="160" fill="white"/>
</clipPath>
</defs>
</svg>
