<svg width="160" height="160" viewBox="0 0 160 160" fill="none" xmlns="http://www.w3.org/2000/svg">
<g clip-path="url(#clip0_1_708)">
<g clip-path="url(#clip1_1_708)">
<path d="M60.9263 117.859C60.9277 119.24 61.4766 120.564 62.4526 121.54C63.4287 122.517 64.7521 123.067 66.1329 123.069H93.8718C95.2523 123.066 96.5753 122.516 97.551 121.54C98.5266 120.563 99.0752 119.239 99.0766 117.859V100.875H60.9263V117.859ZM65.4102 105.357H94.5945V109.601H65.4102V105.357ZM65.4102 114.085H94.5945V117.859C94.5896 118.049 94.5119 118.23 94.3774 118.364C94.243 118.499 94.0619 118.577 93.8718 118.582H66.1258C65.9357 118.577 65.7547 118.499 65.6203 118.364C65.4858 118.23 65.4081 118.049 65.4032 117.859L65.4102 114.085ZM80.0024 23.069C73.6163 23.0628 67.3529 24.8234 61.9052 28.1558C56.4575 31.4883 52.0378 36.2628 49.1351 41.9511C46.2324 47.6394 44.9598 54.0198 45.4581 60.3864C45.9564 66.7531 48.2061 72.8578 51.9585 78.0253L53.8497 80.5034C53.8497 80.5034 55.6123 82.3488 57.3642 84.5837C58.7879 86.1563 59.872 88.0055 60.5491 90.0159V97.7147H99.4168V90.0159C100.098 88.0077 101.181 86.1593 102.6 84.5837C104.35 82.3488 106.125 80.5105 106.125 80.5034L107.986 78.1081C111.759 72.9443 114.027 66.8365 114.54 60.4622C115.053 54.0878 113.79 47.6959 110.892 41.9953C107.994 36.2948 103.574 31.5083 98.1211 28.1666C92.6687 24.8249 86.3974 23.0587 80.0024 23.0637V23.069ZM102.775 77.4648L101.98 78.376C101.255 79.1815 100.171 80.4188 99.0766 81.8201C97.196 84.374 95.1109 86.9033 94.9347 90.0159C94.9347 91.292 94.9347 92.376 94.9347 93.2326H82.2443V71.3928C84.5297 70.8441 86.5344 69.4759 87.8783 67.5476C89.2221 65.6193 89.8118 63.265 89.5355 60.9309C89.2592 58.5968 88.1362 56.4452 86.3793 54.884C84.6223 53.3228 82.3536 52.4604 80.0033 52.4604C77.6529 52.4604 75.3842 53.3228 73.6273 54.884C71.8703 56.4452 70.7472 58.5968 70.4709 60.9309C70.1946 63.265 70.7844 65.6193 72.1283 67.5476C73.4721 69.4759 75.4768 70.8441 77.7622 71.3928V93.2326H65.033V90.0159C64.8567 86.9033 62.7699 84.3758 60.8928 81.8201C60.3129 81.0798 59.7366 80.3853 59.2149 79.7702H59.2271L57.2249 77.4613C53.4308 73.093 50.973 67.7257 50.1445 61.9994C49.316 56.273 50.1519 50.4292 52.5524 45.1647C54.9529 39.9002 58.8168 35.4371 63.6833 32.3075C68.5499 29.178 74.2137 27.514 79.9997 27.514C85.7857 27.514 91.4495 29.178 96.3161 32.3075C101.183 35.4371 105.047 39.9002 107.447 45.1647C109.848 50.4292 110.683 56.273 109.855 61.9994C109.026 67.7257 106.569 73.093 102.775 77.4613V77.4648ZM80.0041 67.1997C78.9932 67.1997 78.005 66.8999 77.1644 66.3383C76.3238 65.7767 75.6687 64.9784 75.2818 64.0444C74.8949 63.1104 74.7937 62.0827 74.9909 61.0912C75.1881 60.0996 75.675 59.1889 76.3898 58.474C77.1047 57.7592 78.0155 57.2724 79.007 57.0752C79.9985 56.8779 81.0262 56.9791 81.9602 57.366C82.8942 57.7529 83.6924 58.408 84.2541 59.2486C84.8157 60.0892 85.1156 61.0774 85.1156 62.0883C85.1156 62.7596 84.9833 63.4242 84.7265 64.0444C84.4696 64.6645 84.093 65.228 83.6184 65.7026C83.1438 66.1773 82.5803 66.5538 81.9602 66.8106C81.3401 67.0675 80.6754 67.1997 80.0041 67.1997Z" fill="white"/>
</g>
<circle cx="80" cy="80" r="78" stroke="white" stroke-width="4"/>
</g>
<defs>
<clipPath id="clip0_1_708">
<rect width="160" height="160" fill="white"/>
</clipPath>
<clipPath id="clip1_1_708">
<rect width="100" height="100" fill="white" transform="translate(30 23.069)"/>
</clipPath>
</defs>
</svg>
