<svg width="160" height="160" viewBox="0 0 160 160" fill="none" xmlns="http://www.w3.org/2000/svg">
<g clip-path="url(#clip0_1_682)">
<path d="M79.9999 28.069C78.6529 28.069 77.5606 29.1611 77.5606 30.5083C77.5606 31.8555 78.6529 32.9476 79.9999 32.9476C90.1856 32.9476 99.495 36.7649 106.578 43.0413L100.815 48.8036C95.0234 43.8192 87.7215 41.1002 80.0001 41.1002C72.0623 41.1002 64.792 44.009 59.1963 48.8156L51.707 41.3264C51.694 41.3134 51.6797 41.3025 51.6666 41.2899C51.6539 41.2767 51.6428 41.2623 51.63 41.2494C50.6773 40.2969 49.1332 40.2969 48.1801 41.2494C39.6807 49.7488 35 61.0495 35 73.0689C35 97.882 55.1871 118.069 79.9999 118.069C92.0199 118.069 103.321 113.388 111.82 104.889C120.319 96.3889 125 85.0885 125 73.0689C125 48.2561 104.813 28.069 79.9999 28.069ZM99.1678 53.9252C100.12 54.8783 101.664 54.8795 102.617 53.9271C102.688 53.8565 102.752 53.7816 102.812 53.705C102.817 53.6999 102.823 53.6956 102.828 53.6905L110.028 46.4911C115.799 53.0043 119.489 61.4009 120.045 70.6297H117.331C115.984 70.6297 114.892 71.7219 114.892 73.0691C114.892 74.4163 115.984 75.5084 117.331 75.5084H120.046C119.511 84.4986 116.02 92.925 110.042 99.661L104.253 93.8726C109.06 88.277 111.969 81.0068 111.969 73.0689C111.969 71.7217 110.876 70.6296 109.529 70.6296C108.182 70.6296 107.09 71.7217 107.09 73.0689C107.09 88.0065 94.9375 100.159 79.9997 100.159C65.062 100.159 52.9093 88.0066 52.9093 73.0689C52.9093 58.1311 65.062 45.9785 79.9997 45.9785C87.2425 45.9788 94.0496 48.801 99.1678 53.9252ZM79.9999 107.726C78.6529 107.726 77.5606 108.818 77.5606 110.165V113.114C68.3317 112.558 59.935 108.868 53.4219 103.097L59.1963 97.3225C64.792 102.129 72.0621 105.038 80.0001 105.038C87.938 105.038 95.2082 102.129 100.804 97.3225L106.592 103.111C99.8564 109.089 91.4298 112.579 82.4394 113.115V110.165C82.4392 108.818 81.3471 107.726 79.9999 107.726ZM39.9549 75.5082H48.1235C48.6528 82.492 51.437 88.8557 55.7466 93.8726L49.9722 99.6471C44.2006 93.1338 40.5113 84.7374 39.9549 75.5082ZM49.9583 46.4772L55.7466 52.2655C51.4372 57.2826 48.653 63.6461 48.1235 70.6299H39.9539C40.4895 61.6397 43.9802 53.2131 49.9583 46.4772Z" fill="white"/>
<path d="M90.773 64.1591C90.6199 64.006 90.4233 63.929 90.1839 63.929H86.2962C86.006 62.5134 85.4601 61.2831 84.6579 60.2435H90.1315C90.3711 60.2435 90.5675 60.1665 90.7206 60.0134C90.874 59.86 90.9507 59.6636 90.9507 59.4244V56.8132C90.9507 56.5741 90.874 56.3778 90.7206 56.2241C90.5675 56.071 90.371 55.994 90.1315 55.994H69.8154C69.5764 55.994 69.38 56.0712 69.2264 56.2241C69.0729 56.3776 68.9963 56.5739 68.9963 56.8132V60.2168C68.9963 60.4395 69.0775 60.631 69.2403 60.7937C69.4013 60.9548 69.5932 61.036 69.8154 61.036H73.0377C76.6375 61.036 78.9246 61.9992 79.8972 63.9272H69.8154C69.5764 63.9272 69.38 64.0042 69.2264 64.1589C69.0729 64.3124 68.9963 64.5073 68.9963 64.7464V67.3571C68.9963 67.5961 69.0729 67.7925 69.2264 67.9461C69.3798 68.0992 69.5762 68.1762 69.8154 68.1762H80.256C79.8801 69.5763 79.0056 70.6426 77.6314 71.3756C76.2585 72.1088 74.4457 72.4769 72.1941 72.4769H69.8152C69.593 72.4769 69.4011 72.5567 69.2401 72.7191C69.0777 72.8815 68.9961 73.0733 68.9961 73.296V75.9823C68.9961 76.3462 69.1262 76.6983 69.3624 76.9748L79.9995 89.8365C80.153 90.0406 80.3658 90.1436 80.639 90.1436H85.6301C85.9875 90.1436 86.236 89.9902 86.3707 89.6819C86.5426 89.3753 86.509 89.0849 86.2698 88.8121C81.2876 82.7042 78.8564 80.0174 76.0068 76.9804C78.907 76.6396 81.2614 75.7011 83.0702 74.1658C84.8785 72.63 85.9798 70.6329 86.3725 68.1776H90.1836C90.4232 68.1776 90.6195 68.1006 90.7726 67.9459C90.9261 67.7925 91.0027 67.5961 91.0027 67.3585V64.7478C91.0031 64.5089 90.9264 64.3125 90.773 64.1591Z" fill="white"/>
<circle cx="80" cy="80" r="78" stroke="white" stroke-width="4"/>
</g>
<defs>
<clipPath id="clip0_1_682">
<rect width="160" height="160" fill="white"/>
</clipPath>
</defs>
</svg>
