<svg width="160" height="160" viewBox="0 0 160 160" fill="none" xmlns="http://www.w3.org/2000/svg">
<g clip-path="url(#clip0_1_694)">
<path d="M106.883 95.4574L106.883 95.4574L106.891 95.4641C107.829 96.2771 108.414 97.5622 108.414 98.9451V106.069H79.9674H51.4971V98.9451C51.4971 97.5622 52.0817 96.2771 53.0204 95.4641L53.0254 95.4598C60.6117 88.8447 68.8069 84.4191 70.4601 83.5635L70.4704 83.5582L70.4806 83.5527C71.3588 83.0852 71.8503 82.1816 71.8503 81.2551V68.4057V67.3632L70.9958 66.7662C70.0201 66.0845 69.327 64.853 69.327 63.4129V50.082C69.327 44.4266 73.5944 40.069 78.6106 40.069H79.9674H81.3005C86.3167 40.069 90.5841 44.4266 90.5841 50.082V63.4129C90.5841 64.8396 89.9007 66.0611 88.8972 66.779L88.0607 67.3773V68.4057V81.2551C88.0607 82.1816 88.5523 83.0853 89.4304 83.5527L89.4407 83.5582L89.451 83.5635C91.1079 84.421 99.2997 88.8203 106.883 95.4574Z" stroke="white" stroke-width="4"/>
<path d="M134.753 86.4586L134.764 86.4683L134.775 86.4779C135.472 87.0712 135.94 88.0469 136 89.185V94.7909H116.473C115.742 92.4317 114.399 90.2873 112.512 88.6448C108.065 84.7442 103.422 81.5536 99.807 79.2903C102.187 77.7993 103.994 76.84 104.617 76.5176L104.678 76.486L104.737 76.4503C105.45 76.0163 105.959 75.2426 105.959 74.2855V63.5143V62.4813L105.117 61.8834C104.366 61.3507 103.84 60.4161 103.84 59.3072V48.1305C103.84 43.5649 107.298 40.069 111.291 40.069H112.41H113.529C117.521 40.069 120.979 43.5649 120.979 48.1305V59.3072C120.979 60.4193 120.447 61.3454 119.688 61.8937L118.86 62.4925V63.5143V74.2855C118.86 75.0638 119.238 76.0488 120.234 76.5336C121.659 77.2691 128.471 80.9465 134.753 86.4586Z" stroke="white" stroke-width="4"/>
<path d="M54.8453 61.8937L54.0173 62.4925V63.5143V74.2855C54.0173 75.063 54.3941 76.0467 55.3873 76.5321C56.0352 76.8684 57.8275 77.8228 60.1861 79.2947C56.5715 81.5577 51.9319 84.7468 47.4881 88.6451C45.6102 90.2799 44.2456 92.4208 43.518 94.7909H24V89.137C24 88.0836 24.4479 87.1098 25.1822 86.453C31.502 80.9093 38.3563 77.2225 39.7214 76.52L39.7849 76.4874L39.8458 76.4503C40.5592 76.0163 41.0682 75.2427 41.0682 74.2855V63.5143V62.4813L40.2258 61.8834C39.4753 61.3507 38.9495 60.4161 38.9495 59.3072V48.1305C38.9495 43.5649 42.4076 40.069 46.4001 40.069H47.5665H48.6854C52.6779 40.069 56.1359 43.5649 56.1359 48.1305V59.3072C56.1359 60.4193 55.6035 61.3454 54.8453 61.8937Z" stroke="white" stroke-width="4"/>
<circle cx="80" cy="80" r="78" stroke="white" stroke-width="4"/>
</g>
<defs>
<clipPath id="clip0_1_694">
<rect width="160" height="160" fill="white"/>
</clipPath>
</defs>
</svg>
