<svg width="160" height="160" viewBox="0 0 160 160" fill="none" xmlns="http://www.w3.org/2000/svg">
<g clip-path="url(#clip0_1_653)">
<g clip-path="url(#clip1_1_653)">
<path d="M118.897 121.503H46.8569" stroke="white" stroke-width="4" stroke-miterlimit="10" stroke-linecap="round"/>
<path d="M60.0005 35.5688L53.7743 29.3535C49.8903 33.2377 46.8173 37.8554 44.7339 42.9379C42.6505 48.0203 41.5982 53.4662 41.6383 58.959C41.6784 64.4518 42.8101 69.8818 44.9675 74.9333C47.1249 79.9848 50.265 84.557 54.2052 88.3841C58.1455 92.2112 62.8072 95.2168 67.9194 97.2262C73.0316 99.2356 78.4923 100.209 83.9839 100.089C89.4755 99.9687 94.8885 98.7583 99.9081 96.5277C104.928 94.2972 109.454 91.091 113.223 87.0956L107.5 81.5688" stroke="white" stroke-width="4" stroke-linecap="round" stroke-linejoin="round"/>
<path d="M82.8774 99.5775V112.503" stroke="white" stroke-width="4" stroke-miterlimit="10"/>
<path d="M104.803 121.503H60.9521L67.2165 112.106H98.5385L104.803 121.503Z" stroke="white" stroke-width="4" stroke-miterlimit="10"/>
<path d="M65.7238 52.2878L68.506 51.5923C69.0658 51.4521 69.6505 51.4432 70.2144 51.5662C70.7784 51.6893 71.3062 51.9409 71.7568 52.3016L74.0015 54.0971C74.5989 54.5749 75.3281 54.8585 76.0912 54.9099C76.8544 54.9613 77.615 54.7781 78.271 54.3848L80.1228 53.2745C80.6315 52.9692 81.2054 52.7893 81.7973 52.7494C82.3892 52.7096 82.9821 52.811 83.5271 53.0453L87.2191 54.6277C87.9609 54.9448 88.7851 55.0143 89.5695 54.8258C90.3539 54.6374 91.0567 54.2011 91.5734 53.5816L93.4584 51.3184C94.0313 50.6306 94.8314 50.1704 95.714 50.021C96.5966 49.8716 97.5036 50.0428 98.271 50.5037V50.5037C99.0809 50.9895 99.6775 51.7632 99.9416 52.6699C100.206 53.5766 100.118 54.5496 99.6953 55.3943L97.0323 60.7203C96.7904 61.2059 96.4455 61.6329 96.0217 61.9716L92.3423 64.9153C91.9032 65.2659 91.5486 65.7108 91.3046 66.2169C91.0606 66.7231 90.9336 67.2777 90.9329 67.8396V70.3157C90.9329 71.0788 90.7 71.8238 90.2653 72.451C89.8306 73.0782 89.2148 73.5578 88.5002 73.8256L83.7918 75.5913C83.176 75.8223 82.6317 76.2112 82.2137 76.7191C81.7958 77.2269 81.5188 77.8359 81.4107 78.4847L80.6201 83.2263C80.6201 83.2263 67.1561 95.974 55.6974 75.2052C45.7387 57.1555 65.7238 52.2878 65.7238 52.2878Z" stroke="white" stroke-width="3" stroke-miterlimit="10"/>
<path d="M86.0016 30.5996V34.2459C86.0018 35.4601 86.2405 36.6576 86.6987 37.7437C87.157 38.8297 87.8222 39.7745 88.6418 40.5032V40.5032C89.7344 41.4749 91.0545 42.0208 92.4201 42.0658C93.7856 42.1108 95.1293 41.6527 96.2658 40.7545L101.945 36.2674C101.945 36.2674 103.289 29.5605 92.8205 27.3557C85.8023 25.8764 86.0016 30.5996 86.0016 30.5996Z" stroke="white" stroke-width="3" stroke-miterlimit="10"/>
<path d="M115.765 58.6567C115.757 65.512 113.593 72.1912 109.577 77.7475C105.562 83.3037 99.8996 87.4553 93.3929 89.6136C86.8862 91.7719 79.8653 91.8276 73.3252 89.7726C66.7852 87.7176 61.0578 83.6563 56.9549 78.1643C52.852 72.6723 50.5819 66.0283 50.4661 59.1739C50.3503 52.3196 52.3948 45.6027 56.3099 39.9753C60.2249 34.3479 65.8119 30.0955 72.2788 27.8208C78.7457 25.5462 85.7645 25.3646 92.3404 27.3019C99.1054 29.3008 105.042 33.4346 109.264 39.0859C113.486 44.7371 115.766 51.6026 115.765 58.6567V58.6567Z" stroke="white" stroke-width="4" stroke-miterlimit="10"/>
</g>
<circle cx="80" cy="80" r="78" stroke="white" stroke-width="4"/>
</g>
<defs>
<clipPath id="clip0_1_653">
<rect width="160" height="160" fill="white"/>
</clipPath>
<clipPath id="clip1_1_653">
<rect width="100" height="100" fill="white" transform="translate(30 23.069)"/>
</clipPath>
</defs>
</svg>
